<svg xmlns="http://www.w3.org/2000/svg" xml:space="preserve" width="128" height="128" data-id="lg_gOHAbEO3GjwwpHhgsA" data-version="1"><g data-padding="20"><path fill="#7ff9ff" fill-rule="evenodd" d="M106.962 39.889 84.933 74.63l.11-41.208ZM64.548 14.68l19.07 36.496-35.62-20.714Zm19.727 36.277V33.423l-7.671 2.41Zm22.358 38.25-41.208-1.645 35.728-20.604ZM85.7 75.068l15.015-8.767-5.918-5.37Zm-22.358 38.25-18.85-36.496 35.51 20.823Zm1.973-25.208 15.015 8.77 1.753-7.781Zm-44.277-.219L43.396 53.26l-.439 41.208Zm22.796-10.85-.11 17.426 7.672-2.411Zm-21.81-38.468 41.1 2.082-35.839 20.166ZM42.848 52.93l-15.234 8.548 5.918 5.48Zm19.946-12.933L47.78 31.121l-1.754 7.891Z" vector-effect="non-scaling-stroke"/><path fill="transparent" stroke="transparent" stroke-width=".186" d="M19.193 12.5h89.614v103H19.193z"/></g></svg>